<?xml version="1.0" encoding="UTF-8"?>
<svg id="_Слой_2" data-name="Слой 2" xmlns="http://www.w3.org/2000/svg" viewBox="0 0 4455 4455">
  <defs>
    <style>
      .cls-1 {
        fill: #016bef;
      }

      .cls-1, .cls-2 {
        stroke-width: 0px;
      }

      .cls-2 {
        fill: #fff;
      }
    </style>
  </defs>
  <g id="_Слой_1-2" data-name="Слой 1">
    <g>
      <path class="cls-1" d="M3870.52,723.46c-61.73-67.4-127.56-130.98-197.11-190.38C3284.3,200.67,2779.36,0,2227.5,0S1170.7,200.67,781.59,533.08c-69.56,59.4-135.38,122.99-197.11,190.38C221.48,1119.72,0,1647.76,0,2227.5c0,543.36,194.53,1041.28,517.85,1427.88,67.91,81.32,141.56,157.68,220.34,228.46,14.3,12.95,28.77,25.64,43.41,38.08,389.1,332.41,894.05,533.08,1445.91,533.08s1056.8-200.67,1445.91-533.08c14.64-12.44,29.11-25.13,43.41-38.08,78.78-70.78,152.43-147.15,220.34-228.46,323.32-386.61,517.85-884.53,517.85-1427.88,0-579.74-221.48-1107.78-584.48-1504.04ZM3898.48,3655.38c-37.1,43.41-76.11,85.5-116.85,126.25-35.45,35.45-71.88,69.51-109.32,102.22-14.72,12.95-29.62,25.6-44.68,38.08-164.45,136.23-346.92,247.12-544.63,330.76-270.94,114.61-558.76,172.7-855.5,172.7s-584.57-58.09-855.5-172.7c-197.7-83.64-380.18-194.53-544.63-330.76-15.06-12.48-29.95-25.13-44.68-38.08-37.44-32.7-73.87-66.76-109.32-102.22-40.74-40.74-79.75-82.84-116.85-126.25-147.02-171.6-265.82-363.51-354.2-572.38-114.61-270.94-172.7-558.76-172.7-855.5s58.09-584.57,172.7-855.5c101.67-240.35,243.65-458.23,422.53-648.53,15.87-16.92,32.07-33.63,48.53-50.09,49.37-49.37,100.73-96.17,154-140.29,164.45-136.23,346.92-247.12,544.63-330.76C1642.93,87.7,1930.75,29.62,2227.5,29.62s584.57,58.09,855.5,172.7c197.7,83.64,380.18,194.53,544.63,330.76,53.27,44.13,104.63,90.92,154,140.29,16.46,16.46,32.66,33.17,48.53,50.09,178.88,190.3,320.86,408.18,422.53,648.53,114.61,270.94,172.7,558.76,172.7,855.5s-58.09,584.57-172.7,855.5c-88.38,208.87-207.18,400.78-354.2,572.38Z"/>
      <path class="cls-1" d="M1987.91,3655.38h-925.1c-47.89-39.13-93.97-80.85-138.18-125.02-169.19-169.23-302.08-366.3-394.86-585.71-96.08-227.11-144.78-468.39-144.78-717.16s48.7-490.05,144.78-717.16c92.78-219.41,225.67-416.48,394.86-585.71,74.17-74.12,153.66-141.31,238.02-201.17h-71.25c-454.81,344.05-748.72,889.73-748.72,1504.04,0,570.73,253.68,1082.23,654.46,1427.88,81.99,70.74,170.16,134.5,263.58,190.38h837.01c-63.25-40.79-106.11-110.46-109.83-190.38ZM3363.59,723.46h-71.25c84.36,59.86,163.86,127.05,238.02,201.17,169.19,169.23,302.08,366.3,394.86,585.71,96.08,227.11,144.78,468.39,144.78,717.16s-48.7,490.05-144.78,717.16c-92.78,219.41-225.67,416.48-394.86,585.71-44.21,44.17-90.29,85.88-138.18,125.02h-925.1c-3.72,79.92-46.58,149.6-109.83,190.38h837.01c93.42-55.89,181.59-119.65,263.58-190.38,400.78-345.65,654.46-857.15,654.46-1427.88,0-614.31-293.91-1159.99-748.72-1504.04ZM1987.91,3655.38h-925.1c-47.89-39.13-93.97-80.85-138.18-125.02-169.19-169.23-302.08-366.3-394.86-585.71-96.08-227.11-144.78-468.39-144.78-717.16s48.7-490.05,144.78-717.16c92.78-219.41,225.67-416.48,394.86-585.71,74.17-74.12,153.66-141.31,238.02-201.17h-71.25c-454.81,344.05-748.72,889.73-748.72,1504.04,0,570.73,253.68,1082.23,654.46,1427.88,81.99,70.74,170.16,134.5,263.58,190.38h837.01c-63.25-40.79-106.11-110.46-109.83-190.38ZM3363.59,723.46h-71.25c84.36,59.86,163.86,127.05,238.02,201.17,169.19,169.23,302.08,366.3,394.86,585.71,96.08,227.11,144.78,468.39,144.78,717.16s-48.7,490.05-144.78,717.16c-92.78,219.41-225.67,416.48-394.86,585.71-44.21,44.17-90.29,85.88-138.18,125.02h-925.1c-3.72,79.92-46.58,149.6-109.83,190.38h837.01c93.42-55.89,181.59-119.65,263.58-190.38,400.78-345.65,654.46-857.15,654.46-1427.88,0-614.31-293.91-1159.99-748.72-1504.04ZM1987.91,3655.38h-925.1c-47.89-39.13-93.97-80.85-138.18-125.02-169.19-169.23-302.08-366.3-394.86-585.71-96.08-227.11-144.78-468.39-144.78-717.16s48.7-490.05,144.78-717.16c92.78-219.41,225.67-416.48,394.86-585.71,74.17-74.12,153.66-141.31,238.02-201.17h-71.25c-454.81,344.05-748.72,889.73-748.72,1504.04,0,570.73,253.68,1082.23,654.46,1427.88,81.99,70.74,170.16,134.5,263.58,190.38h837.01c-63.25-40.79-106.11-110.46-109.83-190.38ZM3363.59,723.46h-71.25c84.36,59.86,163.86,127.05,238.02,201.17,169.19,169.23,302.08,366.3,394.86,585.71,96.08,227.11,144.78,468.39,144.78,717.16s-48.7,490.05-144.78,717.16c-92.78,219.41-225.67,416.48-394.86,585.71-44.21,44.17-90.29,85.88-138.18,125.02h-925.1c-3.72,79.92-46.58,149.6-109.83,190.38h837.01c93.42-55.89,181.59-119.65,263.58-190.38,400.78-345.65,654.46-857.15,654.46-1427.88,0-614.31-293.91-1159.99-748.72-1504.04ZM3363.59,723.46h-71.25c84.36,59.86,163.86,127.05,238.02,201.17,169.19,169.23,302.08,366.3,394.86,585.71,96.08,227.11,144.78,468.39,144.78,717.16s-48.7,490.05-144.78,717.16c-92.78,219.41-225.67,416.48-394.86,585.71-44.21,44.17-90.29,85.88-138.18,125.02h-925.1c-3.72,79.92-46.58,149.6-109.83,190.38h837.01c93.42-55.89,181.59-119.65,263.58-190.38,400.78-345.65,654.46-857.15,654.46-1427.88,0-614.31-293.91-1159.99-748.72-1504.04ZM1987.91,3655.38h-925.1c-47.89-39.13-93.97-80.85-138.18-125.02-169.19-169.23-302.08-366.3-394.86-585.71-96.08-227.11-144.78-468.39-144.78-717.16s48.7-490.05,144.78-717.16c92.78-219.41,225.67-416.48,394.86-585.71,74.17-74.12,153.66-141.31,238.02-201.17h-71.25c-454.81,344.05-748.72,889.73-748.72,1504.04,0,570.73,253.68,1082.23,654.46,1427.88,81.99,70.74,170.16,134.5,263.58,190.38h837.01c-63.25-40.79-106.11-110.46-109.83-190.38ZM3765.68,723.46c-66.47-68.03-137.46-131.62-212.43-190.38-365.37-286.25-825.63-456.92-1325.75-456.92s-960.38,170.67-1325.75,456.92c-74.97,58.77-145.96,122.35-212.43,190.38C309.95,1111.34,76.15,1642.09,76.15,2227.5c0,547.97,204.85,1048.05,542.17,1427.88,72.81,82.04,151.8,158.44,236.25,228.46,15.53,12.95,31.26,25.64,47.17,38.08,365.37,286.25,825.63,456.92,1325.75,456.92s960.38-170.67,1325.75-456.92c15.91-12.44,31.65-25.13,47.17-38.08,84.45-70.02,163.44-146.43,236.25-228.46,337.32-379.84,542.17-879.92,542.17-1427.88,0-585.41-233.79-1116.16-613.17-1504.04ZM3605.12,3605.12c-17.09,17.09-34.48,33.89-52.12,50.26-92.57,86.1-192.46,162.42-298.86,228.46-21.11,13.12-42.48,25.81-64.1,38.08h-1925.08c-21.62-12.27-42.99-24.96-64.1-38.08-106.4-66.04-206.29-142.36-298.86-228.46-17.64-16.37-35.03-33.17-52.12-50.26-179-178.96-319.51-387.37-417.62-619.34-101.54-240.05-153.03-495.17-153.03-758.28s51.49-518.23,153.03-758.28c98.11-231.97,238.61-440.38,417.62-619.34,44.55-44.55,90.88-86.73,139.02-126.41,86.56-71.54,178.75-135.09,276.06-190.38h1925.08c97.31,55.3,189.5,118.84,276.06,190.38,48.15,39.68,94.47,81.87,139.02,126.41,179,178.96,319.51,387.37,417.62,619.34,101.54,240.05,153.03,495.17,153.03,758.28s-51.49,518.23-153.03,758.28c-98.11,231.97-238.61,440.38-417.62,619.34ZM3363.59,723.46h-71.25c84.36,59.86,163.86,127.05,238.02,201.17,169.19,169.23,302.08,366.3,394.86,585.71,96.08,227.11,144.78,468.39,144.78,717.16s-48.7,490.05-144.78,717.16c-92.78,219.41-225.67,416.48-394.86,585.71-44.21,44.17-90.29,85.88-138.18,125.02h-925.1c-3.72,79.92-46.58,149.6-109.83,190.38h837.01c93.42-55.89,181.59-119.65,263.58-190.38,400.78-345.65,654.46-857.15,654.46-1427.88,0-614.31-293.91-1159.99-748.72-1504.04ZM1987.91,3655.38h-925.1c-47.89-39.13-93.97-80.85-138.18-125.02-169.19-169.23-302.08-366.3-394.86-585.71-96.08-227.11-144.78-468.39-144.78-717.16s48.7-490.05,144.78-717.16c92.78-219.41,225.67-416.48,394.86-585.71,74.17-74.12,153.66-141.31,238.02-201.17h-71.25c-454.81,344.05-748.72,889.73-748.72,1504.04,0,570.73,253.68,1082.23,654.46,1427.88,81.99,70.74,170.16,134.5,263.58,190.38h837.01c-63.25-40.79-106.11-110.46-109.83-190.38ZM1987.91,3655.38h-925.1c-47.89-39.13-93.97-80.85-138.18-125.02-169.19-169.23-302.08-366.3-394.86-585.71-96.08-227.11-144.78-468.39-144.78-717.16s48.7-490.05,144.78-717.16c92.78-219.41,225.67-416.48,394.86-585.71,74.17-74.12,153.66-141.31,238.02-201.17h-71.25c-454.81,344.05-748.72,889.73-748.72,1504.04,0,570.73,253.68,1082.23,654.46,1427.88,81.99,70.74,170.16,134.5,263.58,190.38h837.01c-63.25-40.79-106.11-110.46-109.83-190.38ZM3363.59,723.46h-71.25c84.36,59.86,163.86,127.05,238.02,201.17,169.19,169.23,302.08,366.3,394.86,585.71,96.08,227.11,144.78,468.39,144.78,717.16s-48.7,490.05-144.78,717.16c-92.78,219.41-225.67,416.48-394.86,585.71-44.21,44.17-90.29,85.88-138.18,125.02h-925.1c-3.72,79.92-46.58,149.6-109.83,190.38h837.01c93.42-55.89,181.59-119.65,263.58-190.38,400.78-345.65,654.46-857.15,654.46-1427.88,0-614.31-293.91-1159.99-748.72-1504.04ZM1987.91,3655.38h-925.1c-47.89-39.13-93.97-80.85-138.18-125.02-169.19-169.23-302.08-366.3-394.86-585.71-96.08-227.11-144.78-468.39-144.78-717.16s48.7-490.05,144.78-717.16c92.78-219.41,225.67-416.48,394.86-585.71,74.17-74.12,153.66-141.31,238.02-201.17h-71.25c-454.81,344.05-748.72,889.73-748.72,1504.04,0,570.73,253.68,1082.23,654.46,1427.88,81.99,70.74,170.16,134.5,263.58,190.38h837.01c-63.25-40.79-106.11-110.46-109.83-190.38ZM3363.59,723.46h-71.25c84.36,59.86,163.86,127.05,238.02,201.17,169.19,169.23,302.08,366.3,394.86,585.71,96.08,227.11,144.78,468.39,144.78,717.16s-48.7,490.05-144.78,717.16c-92.78,219.41-225.67,416.48-394.86,585.71-44.21,44.17-90.29,85.88-138.18,125.02h-925.1c-3.72,79.92-46.58,149.6-109.83,190.38h837.01c93.42-55.89,181.59-119.65,263.58-190.38,400.78-345.65,654.46-857.15,654.46-1427.88,0-614.31-293.91-1159.99-748.72-1504.04Z"/>
    </g>
    <path class="cls-1" d="M2398.85,3644c0,3.81-.13,7.61-.38,11.38-5.84,89.31-80.13,159.97-170.97,159.97s-165.13-70.65-170.97-159.97c-.25-3.77-.38-7.57-.38-11.38,0-94.64,76.7-171.35,171.35-171.35s171.35,76.7,171.35,171.35Z"/>
    <path class="cls-2" d="M2259.79,3560.99v183.01h-49.69v-137.26h-1.07l-40.03,23.95v-42.18l45.04-27.52h45.75Z"/>
    <g>
      <path class="cls-2" d="M1456.47,3727.06v-17.93h71.26v17.93h-24.66v64.06h-21.94v-64.06h-24.66Z"/>
      <path class="cls-2" d="M1615.49,3750.12c0,9.13-1.78,16.82-5.32,23.08-3.55,6.26-8.34,11-14.37,14.21-6.03,3.22-12.76,4.82-20.18,4.82s-14.22-1.62-20.24-4.86c-6.02-3.24-10.8-7.99-14.33-14.25-3.54-6.26-5.3-13.92-5.3-23s1.77-16.82,5.3-23.08c3.54-6.26,8.31-11,14.33-14.21,6.02-3.22,12.76-4.82,20.24-4.82s14.14,1.61,20.18,4.82c6.03,3.22,10.82,7.95,14.37,14.21,3.55,6.26,5.32,13.95,5.32,23.08ZM1592.59,3750.12c0-4.91-.65-9.05-1.94-12.43-1.29-3.38-3.2-5.94-5.72-7.69-2.52-1.75-5.62-2.62-9.31-2.62s-6.79.88-9.31,2.62c-2.52,1.75-4.43,4.31-5.72,7.69-1.3,3.38-1.94,7.52-1.94,12.43s.65,9.05,1.94,12.43c1.29,3.38,3.2,5.94,5.72,7.69,2.52,1.75,5.62,2.62,9.31,2.62s6.78-.87,9.31-2.62c2.52-1.75,4.43-4.31,5.72-7.69,1.29-3.38,1.94-7.52,1.94-12.43Z"/>
      <path class="cls-2" d="M1701,3709.12v81.99h-21.94v-64.38h-27.7v64.38h-21.94v-81.99h71.58Z"/>
    </g>
    <g>
      <path class="cls-2" d="M2657.02,3738.69h-21.74c-.15-1.8-.56-3.43-1.21-4.9-.65-1.46-1.55-2.73-2.7-3.8-1.14-1.07-2.52-1.89-4.14-2.47-1.62-.58-3.46-.87-5.51-.87-3.6,0-6.64.88-9.12,2.62-2.48,1.75-4.36,4.25-5.63,7.52-1.27,3.27-1.91,7.18-1.91,11.76,0,4.83.65,8.87,1.95,12.13,1.3,3.25,3.18,5.69,5.65,7.32s5.43,2.45,8.9,2.45c1.98,0,3.75-.25,5.32-.75,1.57-.5,2.93-1.23,4.09-2.18,1.16-.95,2.1-2.1,2.83-3.45.73-1.35,1.23-2.87,1.48-4.57l21.74.15c-.26,3.34-1.19,6.74-2.81,10.2-1.62,3.46-3.91,6.65-6.88,9.56-2.97,2.92-6.64,5.26-11.01,7.04-4.37,1.77-9.44,2.66-15.23,2.66-7.25,0-13.74-1.55-19.49-4.66-5.74-3.11-10.28-7.68-13.61-13.72-3.33-6.04-4.99-13.43-4.99-22.17s1.69-16.2,5.09-22.22c3.39-6.03,7.97-10.59,13.73-13.69,5.76-3.1,12.18-4.65,19.27-4.65,4.99,0,9.57.68,13.76,2.05,4.19,1.36,7.86,3.35,11.02,5.96,3.16,2.61,5.71,5.81,7.63,9.62,1.93,3.8,3.1,8.16,3.51,13.07Z"/>
      <path class="cls-2" d="M2666.73,3788.03v-78.95h56.9v17.27h-35.47v13.57h32.54v17.27h-32.54v13.57h35.31v17.27h-56.75Z"/>
      <path class="cls-2" d="M2789.78,3709.08v17.27h-34.08v61.68h-21.43v-78.95h55.51Z"/>
      <path class="cls-2" d="M2874.29,3748.56c0,8.79-1.71,16.2-5.13,22.23-3.42,6.03-8.03,10.59-13.84,13.69-5.81,3.1-12.29,4.64-19.43,4.64s-13.69-1.56-19.49-4.68c-5.8-3.12-10.4-7.7-13.8-13.72-3.4-6.03-5.11-13.41-5.11-22.15s1.7-16.2,5.11-22.22c3.4-6.03,8-10.59,13.8-13.69,5.8-3.1,12.29-4.65,19.49-4.65s13.62,1.55,19.43,4.65c5.81,3.1,10.42,7.66,13.84,13.69,3.42,6.03,5.13,13.44,5.13,22.22ZM2852.24,3748.56c0-4.73-.63-8.72-1.87-11.97-1.25-3.25-3.08-5.72-5.51-7.4-2.43-1.68-5.42-2.53-8.96-2.53s-6.53.84-8.97,2.53c-2.43,1.68-4.26,4.15-5.51,7.4-1.25,3.25-1.87,7.24-1.87,11.97s.62,8.72,1.87,11.97c1.25,3.25,3.08,5.72,5.51,7.4,2.43,1.68,5.42,2.52,8.97,2.52s6.53-.84,8.96-2.52c2.43-1.68,4.26-4.15,5.51-7.4,1.24-3.25,1.87-7.24,1.87-11.97Z"/>
      <path class="cls-2" d="M2881.53,3807v-35.47h5.55c1.85-1.13,3.53-2.72,5.03-4.78,1.5-2.06,2.79-5,3.85-8.83s1.85-8.96,2.37-15.38l2.62-33.46h55.82v62.45h8.33v35.47h-20.66v-18.97h-42.25v18.97h-20.66ZM2911.61,3771.53h24.52v-45.18h-15.88l-1.23,16.19c-.36,4.83-.91,9.06-1.64,12.67-.73,3.61-1.59,6.74-2.58,9.41-.99,2.66-2.05,4.97-3.18,6.92Z"/>
      <path class="cls-2" d="M2972.36,3788.03v-78.95h21.43v30.84h28.37v-30.84h21.43v78.95h-21.43v-30.84h-28.37v30.84h-21.43Z"/>
      <path class="cls-2" d="M3072.75,3751.79h22.82l-19.27,36.24h-23.28l19.74-36.24ZM3119.01,3788.03h-21.43v-61.84h-7.56c-2.49,0-4.64.34-6.44,1.02-1.8.68-3.18,1.73-4.14,3.16-.96,1.43-1.45,3.27-1.45,5.53s.48,4.05,1.45,5.44c.96,1.39,2.34,2.4,4.14,3.03,1.8.63,3.94.94,6.44.94h16.04v16.66h-20.36c-5.99,0-11.24-.99-15.77-2.97-4.53-1.98-8.04-4.91-10.55-8.79-2.5-3.88-3.76-8.65-3.76-14.3s1.22-10.41,3.66-14.42c2.44-4.01,5.87-7.08,10.28-9.22,4.41-2.13,9.53-3.2,15.36-3.2h34.08v78.95Z"/>
    </g>
  </g>
</svg>