<?xml version="1.0" encoding="UTF-8"?>
<svg id="_Слой_2" data-name="Слой 2" xmlns="http://www.w3.org/2000/svg" viewBox="0 0 2000 1757.89">
  <defs>
    <style>
      .cls-1 {
        fill: #016bef;
      }

      .cls-1, .cls-2 {
        stroke-width: 0px;
      }

      .cls-2 {
        fill: #fff;
      }
    </style>
  </defs>
  <g id="_Слой_1-2" data-name="Слой 1">
    <g>
      <path class="cls-2" d="M1987.18,830.9L1535.2,48.06c-17.11-29.64-49-48.06-83.23-48.06h-903.94c-34.23,0-66.13,18.42-83.23,48.06L12.84,830.9c-17.11,29.64-17.11,66.46,0,96.1l380.18,658.51,71.79,124.33c17.1,29.64,49,48.06,83.23,48.06h903.94c34.23,0,66.11-18.42,83.23-48.06l451.98-782.84c17.1-29.64,17.1-66.46,0-96.1ZM1939.52,899.48l-380.19,658.51-2.79,4.84c-6.81,11.79-19.39,19.05-33.01,19.05H476.47c-13.62,0-26.21-7.27-33.01-19.05l-2.79-4.84L60.47,899.47c-7.31-12.65-7.31-28.39.01-41.06L512.45,75.57c7.31-12.67,20.95-20.55,35.58-20.55h903.94c14.62,0,28.26,7.88,35.58,20.55l451.98,782.84c7.31,12.67,7.31,28.41,0,41.08Z"/>
      <path class="cls-1" d="M1980.91,834.52L1528.93,51.68c-15.87-27.5-45.2-44.44-76.96-44.44h-903.94c-31.74,0-61.09,16.94-76.96,44.44L19.11,834.52c-15.88,27.5-15.88,61.36,0,88.86l380.18,658.51,71.79,124.33c15.87,27.5,45.22,44.44,76.96,44.44h903.94c31.75,0,61.09-16.94,76.96-44.44l71.79-124.33,380.19-658.51c15.87-27.5,15.87-61.36,0-88.86ZM1939.52,899.48l-380.19,658.51-2.79,4.84c-6.81,11.79-19.39,19.05-33.01,19.05H476.47c-13.62,0-26.21-7.27-33.01-19.05l-2.79-4.84L60.47,899.47c-7.31-12.65-7.31-28.39.01-41.06L512.45,75.57c7.31-12.67,20.95-20.55,35.58-20.55h903.94c14.62,0,28.26,7.88,35.58,20.55l451.98,782.84c7.31,12.67,7.31,28.41,0,41.08Z"/>
      <path class="cls-1" d="M1891.87,900.86l-322.43,562.37-39.64,69.12h0c-9.04,9.8-21.41,16.01-34.82,17.3-1.75.17-3.5.26-5.27.26h-400.06c22.94-22.18,37.76-52.7,39.59-86.69h415.3l328.66-573.23c3.91-6.82,3.91-15.29,0-22.11l-354.35-618.03-14.94-26.06H496.09l-14.94,26.06L126.8,867.89c-3.91,6.82-3.91,15.29,0,22.11l328.66,573.23h412.94c1.82,33.98,16.65,64.5,39.59,86.69h-397.68c-1.77,0-3.53-.09-5.28-.26-13.42-1.3-25.82-7.53-34.85-17.33l-39.61-69.09L108.12,900.86c-7.78-13.55-7.78-30.28,0-43.83L456.24,249.87l78.97-137.73c4.88-8.5,12.34-14.96,21.07-18.59h887.42c8.73,3.62,16.2,10.08,21.08,18.59l78.97,137.73,348.12,607.17c7.78,13.55,7.78,30.28,0,43.83Z"/>
      <path class="cls-1" d="M1443.7,93.53h-887.42c5.18-2.16,10.83-3.32,16.64-3.32h854.18c5.79,0,11.42,1.16,16.61,3.32Z"/>
      <circle class="cls-1" cx="998.82" cy="1456.06" r="105.31"/>
      <path class="cls-2" d="M1016.82,1408.76v100.4h-27.26v-75.3h-.59l-21.96,13.14v-23.14l24.71-15.1h25.1Z"/>
      <g>
        <path class="cls-2" d="M614.34,1496.38v-7.93h31.49v7.93h-10.9v28.31h-9.7v-28.31h-10.9Z"/>
        <path class="cls-2" d="M684.61,1506.57c0,4.03-.78,7.43-2.35,10.2-1.57,2.77-3.69,4.86-6.35,6.28-2.67,1.42-5.64,2.13-8.92,2.13s-6.28-.72-8.94-2.15c-2.66-1.43-4.77-3.53-6.33-6.3-1.56-2.77-2.34-6.15-2.34-10.17s.78-7.43,2.34-10.2c1.56-2.77,3.67-4.86,6.33-6.28,2.66-1.42,5.64-2.13,8.94-2.13s6.25.71,8.92,2.13c2.67,1.42,4.78,3.52,6.35,6.28,1.57,2.77,2.35,6.17,2.35,10.2ZM674.49,1506.57c0-2.17-.29-4-.86-5.49-.57-1.49-1.42-2.62-2.53-3.4-1.11-.77-2.49-1.16-4.11-1.16s-3,.39-4.11,1.16c-1.11.77-1.96,1.9-2.53,3.4-.57,1.49-.86,3.32-.86,5.49s.29,4,.86,5.49c.57,1.49,1.42,2.63,2.53,3.4,1.11.77,2.49,1.16,4.11,1.16s3-.39,4.11-1.16c1.11-.77,1.96-1.9,2.53-3.4.57-1.49.86-3.32.86-5.49Z"/>
        <path class="cls-2" d="M722.4,1488.46v36.23h-9.7v-28.45h-12.24v28.45h-9.69v-36.23h31.63Z"/>
      </g>
      <g>
        <path class="cls-2" d="M1241.43,1497.94h-9.98c-.07-.83-.26-1.57-.56-2.25-.3-.67-.71-1.25-1.24-1.74-.52-.49-1.16-.87-1.9-1.13-.74-.27-1.59-.4-2.53-.4-1.65,0-3.05.4-4.18,1.2-1.14.8-2,1.95-2.58,3.45-.58,1.5-.88,3.3-.88,5.4,0,2.22.3,4.07.89,5.57.6,1.49,1.46,2.61,2.59,3.36s2.49,1.12,4.09,1.12c.91,0,1.72-.11,2.44-.35.72-.23,1.34-.56,1.87-1,.53-.44.96-.96,1.3-1.58.34-.62.56-1.32.68-2.1l9.98.07c-.12,1.53-.55,3.09-1.29,4.68-.74,1.59-1.8,3.05-3.16,4.39-1.36,1.34-3.05,2.42-5.05,3.23s-4.33,1.22-6.99,1.22c-3.33,0-6.31-.71-8.94-2.14-2.64-1.43-4.72-3.53-6.25-6.3s-2.29-6.16-2.29-10.17.78-7.43,2.33-10.2c1.56-2.77,3.66-4.86,6.3-6.28,2.64-1.42,5.59-2.13,8.85-2.13,2.29,0,4.39.31,6.32.94,1.92.62,3.61,1.54,5.06,2.73,1.45,1.2,2.62,2.67,3.5,4.41.88,1.74,1.42,3.74,1.61,6Z"/>
        <path class="cls-2" d="M1245.89,1520.58v-36.23h26.11v7.93h-16.28v6.23h14.93v7.93h-14.93v6.23h16.21v7.93h-26.04Z"/>
        <path class="cls-2" d="M1302.36,1484.35v7.93h-15.64v28.31h-9.84v-36.23h25.48Z"/>
        <path class="cls-2" d="M1341.14,1502.47c0,4.03-.78,7.43-2.35,10.2-1.57,2.77-3.69,4.86-6.35,6.28-2.67,1.42-5.64,2.13-8.92,2.13s-6.28-.72-8.94-2.15c-2.66-1.43-4.77-3.53-6.33-6.3-1.56-2.77-2.34-6.15-2.34-10.17s.78-7.43,2.34-10.2c1.56-2.77,3.67-4.86,6.33-6.28,2.66-1.42,5.64-2.13,8.94-2.13s6.25.71,8.92,2.13c2.67,1.42,4.78,3.52,6.35,6.28,1.57,2.77,2.35,6.17,2.35,10.2ZM1331.02,1502.47c0-2.17-.29-4-.86-5.49-.57-1.49-1.42-2.62-2.53-3.4-1.12-.77-2.49-1.16-4.11-1.16s-3,.39-4.11,1.16c-1.11.77-1.96,1.9-2.53,3.4-.57,1.49-.86,3.32-.86,5.49s.29,4,.86,5.49c.57,1.49,1.42,2.63,2.53,3.4,1.12.77,2.49,1.16,4.11,1.16s3-.39,4.11-1.16c1.11-.77,1.96-1.9,2.53-3.4.57-1.49.86-3.32.86-5.49Z"/>
        <path class="cls-2" d="M1344.47,1529.29v-16.28h2.55c.85-.52,1.62-1.25,2.31-2.19.69-.94,1.28-2.29,1.77-4.05s.85-4.11,1.09-7.06l1.2-15.36h25.62v28.66h3.82v16.28h-9.48v-8.7h-19.39v8.7h-9.48ZM1358.27,1513.01h11.25v-20.74h-7.29l-.57,7.43c-.17,2.22-.42,4.16-.75,5.81s-.73,3.1-1.18,4.32c-.45,1.22-.94,2.28-1.46,3.18Z"/>
        <path class="cls-2" d="M1386.15,1520.58v-36.23h9.84v14.15h13.02v-14.15h9.84v36.23h-9.84v-14.15h-13.02v14.15h-9.84Z"/>
        <path class="cls-2" d="M1432.22,1503.95h10.47l-8.85,16.63h-10.69l9.06-16.63ZM1453.45,1520.58h-9.84v-28.38h-3.47c-1.14,0-2.13.16-2.95.47s-1.46.8-1.9,1.45-.66,1.5-.66,2.54.22,1.86.66,2.5c.44.64,1.08,1.1,1.9,1.39s1.81.43,2.95.43h7.36v7.64h-9.34c-2.75,0-5.16-.45-7.24-1.36-2.08-.91-3.69-2.25-4.84-4.03-1.15-1.78-1.73-3.97-1.73-6.56s.56-4.78,1.68-6.62c1.12-1.84,2.69-3.25,4.72-4.23,2.02-.98,4.37-1.47,7.05-1.47h15.64v36.23Z"/>
      </g>
      <path class="cls-1" d="M1443.7,93.53h-887.42c5.18-2.16,10.83-3.32,16.64-3.32h854.18c5.79,0,11.42,1.16,16.61,3.32Z"/>
    </g>
  </g>
</svg>